<svg width="1294" height="1519" viewBox="0 0 1294 1519" fill="none" xmlns="http://www.w3.org/2000/svg">
<path d="M142.838 0.84159C198.334 -0.937411 262.894 0.657594 318.974 0.652594L664.171 0.624579L866.021 0.626593L929.411 0.64057C956.451 0.66957 978.421 -2.6804 999.491 17.7566C1020.18 37.8296 1040.43 58.2876 1060.81 78.6796L1181.94 200.358L1249.72 268.559C1271.1 290.048 1292.5 304.103 1292.82 336.91C1293.08 362.244 1293.14 387.613 1293.13 412.966V552.747L1293.11 985.053L1293.12 1257.72L1293.13 1339.54C1293.13 1353.84 1293.68 1374.04 1292.11 1387.82C1288.66 1418.01 1275.54 1448.68 1254.69 1471.04C1225.59 1502.25 1191.5 1516.2 1149.45 1517.95L431.887 1517.93L226.389 1517.88C194.228 1517.85 155.273 1519.38 123.717 1516.33C95.5344 1512.28 70.1654 1499.31 49.1354 1481.06C-9.32162 1430.33 0.60338 1358.76 0.68638 1289.13L0.779397 1127.02L0.762399 616.327L0.717386 287.719L0.695382 186.268C0.699382 171.531 0.0143847 145.04 1.63538 131.015C4.90938 99.9796 17.9184 70.7756 38.7984 47.5836C66.1264 17.2336 102.606 2.73059 142.838 0.84159Z" fill="#3A3D41"/>
<path d="M143.919 15.832C163.818 15.162 186.382 15.718 206.584 15.727L323.341 15.743L679.371 15.775L869.601 15.732L925.801 15.713C938.541 15.699 958.361 15.157 970.521 17.639C986.361 20.873 982.411 63.019 982.371 75.293L982.221 187.651C982.161 223.721 976.931 266.794 1000.36 296.703C1011.69 311.187 1027.39 321.63 1045.12 326.484C1061.29 330.823 1087.05 329.675 1104.53 329.665L1211.77 329.589C1226.55 329.58 1256 328.746 1269.32 330.469L1270.66 330.651C1274.48 334.023 1278.57 337.944 1278.77 343.311C1279.39 359.1 1279.13 375.719 1279.13 391.502L1279.12 491.841L1279.1 822.843L1279.12 1204.69L1279.15 1321.96C1279.15 1338.51 1280 1370.02 1278.32 1385.39C1275.42 1411.38 1265.04 1435.96 1248.43 1456.15C1222.53 1487.04 1192.49 1499.81 1153.35 1503.33C1076.35 1504.54 996.331 1503.43 919.131 1503.43L463.017 1503.47L241.82 1503.46L175.956 1503.48C130.461 1503.49 96.1423 1503.88 59.6783 1471.21C33.1953 1447.78 17.1953 1414.72 15.2513 1379.41C13.8243 1353.21 14.8694 1317.53 14.8794 1290.8L14.9083 1125.54L14.9273 618.484L14.8983 287.582L14.8233 185.747C14.8193 170.968 14.6733 155.628 15.1043 141.382C16.7633 86.559 54.3673 36.946 107.08 21.273C120.659 17.235 129.945 16.486 143.919 15.832Z" fill="#2B2D30"/>
<path d="M989.912 31.7383C995.472 35.3233 1011.99 52.6553 1017.87 58.5273L1076.19 116.85L1203.22 244.273C1224.58 265.687 1246.17 287.125 1267.4 308.672C1270.98 312.304 1274.02 317.142 1276.73 321.475C1257.48 323.266 1225.45 322.286 1204.86 322.289L1078.42 322.396C1052.18 322.366 1031.57 317.769 1012.4 298.762C984.952 271.56 990.302 238.971 989.942 203.814C989.872 196.516 989.942 189.236 989.942 181.963L989.912 31.7383Z" fill="#4A4D52"/>
<path d="M967.425 887.785C989.79 834.266 1024.41 845.669 1064.13 871.184C1076.57 879.154 1089.02 877.61 1103.54 877.61C1085.96 886.903 1077.23 892.762 1061.04 903.976C1035.12 966.535 1034.05 978.19 971.583 1010.98C972.906 1021.19 974.765 1027.8 971.489 1037.47C955.518 1015.01 960.936 1014.89 935.705 1016.71L923.672 1017.63C902.693 1013.12 888.675 1009.56 867.066 1010.19C853.017 1010.57 830.085 1018.04 819.848 1016.18C814.367 1004.87 815.091 1010.54 816.698 998.696C850.781 979.922 857.144 989.467 880.674 952.328C902.724 917.521 929.058 901.393 967.425 887.785Z" fill="#12D3DA"/>
<path d="M416.31 1213.24C396.913 1203.89 316.194 1163.91 317.111 1142.37C331.289 1137.96 403.014 1179.22 435.516 1189.55C606.435 1239.54 770.582 1232.58 934.665 1152.26C947.832 1145.8 950.856 1139.53 966.763 1137.8L971.331 1141.71C969.252 1154.12 958.164 1161.24 948.116 1168.39C806.303 1269.5 573.832 1289.72 416.31 1213.24ZM580.542 342.109C689.248 336.187 649.811 498.286 605.049 550.986L593.709 552.246C551.134 532.432 533.434 436.546 544.273 394.273C551.212 367.183 557.531 356.757 580.542 342.109ZM633.777 691.381C706.164 688.704 803.31 796.591 746.39 861.261C656.898 902.337 602.624 747.546 633.777 691.381ZM758.359 426.939C807.783 426.813 832.258 463.069 805.2 506.476C780.252 546.576 744.058 566.798 700.462 580.028C603.789 601.952 664.994 509.626 691.769 473.905C708.432 451.698 732.277 435.979 758.359 426.939ZM539.192 691.287C549.852 691.035 549.187 690.657 558.057 696.453C583.409 733.591 552.346 823.681 519.942 851.023C500.299 867.592 488.146 869.041 463.434 868.222C379.767 826.925 470.821 712.864 539.192 691.287Z" fill="#3CABFA"/>
<path d="M1024.41 1027.58C1033.01 1027.93 1030.05 1027.36 1037.95 1030.48L1040.54 1037.63C1036.57 1051.8 1019.72 1065.32 1007.81 1073.7C869.46 1171 705.597 1208.86 539.851 1184.99C526.441 1182.84 531.471 1185.9 523.039 1177.83C528.983 1172.79 581.834 1173.96 594.717 1172.86C762.392 1158.34 880.517 1111.62 1024.41 1027.58ZM410.464 427.347C428.435 425.835 434.94 426.276 451.997 433.679C490.855 450.5 556.237 533.439 534.99 577.256C524.781 582.8 524.73 580.564 510.94 579.871L506.927 579.335C437.945 569.601 314.808 486.536 410.464 427.347ZM753.162 600.881C793.356 597.668 856.923 598.644 866.184 650.493C868.452 662.4 865.365 674.717 857.742 684.167C842.559 703.036 816.918 706.69 794.584 708.202C700.399 701.083 604.01 620.442 753.162 600.881ZM419.117 598.14C545.489 602.361 541.989 675.536 422.135 706.374C375.149 711.288 297.562 698.248 340.144 625.924C353.005 604.094 394.254 599.841 419.117 598.14Z" fill="#3CABFA"/>
<path d="M591.189 748.869L599.505 754.35C636.643 827.682 627.036 1029.09 617.019 1113.32C606.309 1112.98 597.741 1114.05 588.984 1108.44C587.44 1087.71 593.331 1035.46 596.512 1013.97C607.632 939.097 569.832 814.61 591.189 748.869Z" fill="#12D3DA"/>
<path d="M586.905 576.846C616.799 573.035 644.33 593.636 649.086 623.372C653.874 653.139 634.155 681.301 604.577 687.034C584.574 690.877 564.068 683.569 551.055 667.882C538.042 652.226 534.59 630.712 542.052 611.78C549.515 592.817 566.714 579.429 586.905 576.846Z" fill="#F9A21F"/>
<path d="M747.807 909.172C758.454 908.133 760.186 907.849 771.274 908.794C802.711 936.451 746.232 996.68 720.969 1010.22C708.81 1016.75 695.58 1019.3 682.287 1022.07L644.203 1021.88C662.19 959.95 680.649 925.426 747.807 909.172Z" fill="#12D3DA"/>
<path d="M243.363 1026.6C260.42 1027.71 296.141 1050.95 313.696 1060.43C345.93 1077.79 379.49 1092.56 414.058 1104.63C432.927 1111.4 468.881 1124.32 487.907 1128.03C527.005 1135.66 568.73 1139.72 607.79 1148.89L610.057 1152.64C493.186 1162.75 352.8 1137.26 261.532 1059.8C249.272 1049.38 244.059 1042.29 243.363 1026.6Z" fill="#3CABFA"/>
<path d="M923.672 1017.63L935.705 1016.71C936.051 1029 937.973 1042.2 932.492 1052.69C924.018 1047.05 924.365 1027.52 923.672 1017.63Z" fill="#12D3DA"/>
</svg>
